HIERARCHY
ROOT Hips
{
	OFFSET 0.125245 88.705444 4.790124
	CHANNELS 6 Xposition Yposition Zposition Zrotation Yrotation Xrotation 
	JOINT Spine
	{
		OFFSET -0.000000 8.814246 -2.080107
		CHANNELS 3 Zrotation Yrotation Xrotation
		JOINT Spine1
		{
			OFFSET 0.000000 8.844141 0.000000
			CHANNELS 3 Zrotation Yrotation Xrotation
			JOINT Spine2
			{
				OFFSET 0.000000 11.682268 -0.000000
				CHANNELS 3 Zrotation Yrotation Xrotation
				JOINT Spine3
				{
					OFFSET -0.000000 11.746700 -0.000000
					CHANNELS 3 Zrotation Yrotation Xrotation
					JOINT Neck
					{
						OFFSET 0.000000 17.658264 -0.000000
						CHANNELS 3 Zrotation Yrotation Xrotation
						JOINT Neck1
						{
							OFFSET -0.000000 5.101515 -0.000000
							CHANNELS 3 Zrotation Yrotation Xrotation
							JOINT Head
							{
								OFFSET 0.000000 5.101515 -0.000000
								CHANNELS 3 Zrotation Yrotation Xrotation
								JOINT HeadEnd
								{
									OFFSET 0.000000 11.655085 0.000000
									CHANNELS 3 Zrotation Yrotation Xrotation
									End Site
									{
										OFFSET 0.000000 0.000000 0.000000
									}
								}
							}
						}
					}
					JOINT RightShoulder
					{
						OFFSET -2.625389 11.175210 0.000000
						CHANNELS 3 Zrotation Yrotation Xrotation
						JOINT RightArm
						{
							OFFSET -0.000000 10.434715 -0.000000
							CHANNELS 3 Zrotation Yrotation Xrotation
							JOINT RightForeArm
							{
								OFFSET 0.000000 29.628420 -0.000000
								CHANNELS 3 Zrotation Yrotation Xrotation
								JOINT RightHand
								{
									OFFSET 0.000000 22.857611 -0.000000
									CHANNELS 3 Zrotation Yrotation Xrotation
									JOINT RightHandThumb1
									{
										OFFSET -2.867323 3.959563 2.944291
										CHANNELS 3 Zrotation Yrotation Xrotation
										JOINT RightHandThumb2
										{
											OFFSET 0.000000 3.350399 -0.000000
											CHANNELS 3 Zrotation Yrotation Xrotation
											JOINT RightHandThumb3
											{
												OFFSET -0.000000 3.756509 0.000000
												CHANNELS 3 Zrotation Yrotation Xrotation
												JOINT RightHandThumb4
												{
													OFFSET 0.000000 3.147345 -0.000000
													CHANNELS 3 Zrotation Yrotation Xrotation
													End Site
													{
														OFFSET 0.000000 0.000000 0.000000
													}
												}
											}
										}
									}
									JOINT RightHandIndex1
									{
										OFFSET -0.086752 10.030893 2.345280
										CHANNELS 3 Zrotation Yrotation Xrotation
										JOINT RightHandIndex2
										{
											OFFSET 0.000000 4.061090 -0.000000
											CHANNELS 3 Zrotation Yrotation Xrotation
											JOINT RightHandIndex3
											{
												OFFSET -0.000000 3.248873 -0.000000
												CHANNELS 3 Zrotation Yrotation Xrotation
												JOINT RightHandIndex4
												{
													OFFSET -0.000000 2.639709 -0.000000
													CHANNELS 3 Zrotation Yrotation Xrotation
													End Site
													{
														OFFSET 0.000000 0.000000 0.000000
													}
												}
											}
										}
									}
									JOINT RightHandMiddle1
									{
										OFFSET 0.104102 9.502952 0.006768
										CHANNELS 3 Zrotation Yrotation Xrotation
										JOINT RightHandMiddle2
										{
											OFFSET -0.000000 4.568727 -0.000000
											CHANNELS 3 Zrotation Yrotation Xrotation
											JOINT RightHandMiddle3
											{
												OFFSET 0.000000 3.654981 -0.000000
												CHANNELS 3 Zrotation Yrotation Xrotation
												JOINT RightHandMiddle4
												{
													OFFSET 0.000000 2.741236 -0.000000
													CHANNELS 3 Zrotation Yrotation Xrotation
													End Site
													{
														OFFSET 0.000000 0.000000 0.000000
													}
												}
											}
										}
									}
									JOINT RightHandRing1
									{
										OFFSET 0.086752 8.921708 -2.267442
										CHANNELS 3 Zrotation Yrotation Xrotation
										JOINT RightHandRing2
										{
											OFFSET 0.000000 4.061090 -0.000000
											CHANNELS 3 Zrotation Yrotation Xrotation
											JOINT RightHandRing3
											{
												OFFSET 0.000000 3.654981 -0.000000
												CHANNELS 3 Zrotation Yrotation Xrotation
												JOINT RightHandRing4
												{
													OFFSET -0.000000 2.741236 0.000000
													CHANNELS 3 Zrotation Yrotation Xrotation
													End Site
													{
														OFFSET 0.000000 0.000000 0.000000
													}
												}
											}
										}
									}
									JOINT RightHandPinky1
									{
										OFFSET -0.173504 7.976997 -4.467199
										CHANNELS 3 Zrotation Yrotation Xrotation
										JOINT RightHandPinky2
										{
											OFFSET 0.000000 3.350399 -0.000000
											CHANNELS 3 Zrotation Yrotation Xrotation
											JOINT RightHandPinky3
											{
												OFFSET 0.000000 2.842763 -0.000000
												CHANNELS 3 Zrotation Yrotation Xrotation
												JOINT RightHandPinky4
												{
													OFFSET 0.000000 2.639709 0.000000
													CHANNELS 3 Zrotation Yrotation Xrotation
													End Site
													{
														OFFSET 0.000000 0.000000 0.000000
													}
												}
											}
										}
									}
									JOINT RightForeArmEnd
									{
										OFFSET 0.000000 0.000000 0.000000
										CHANNELS 3 Zrotation Yrotation Xrotation
										End Site
										{
											OFFSET 0.000000 0.000000 0.000000
										}
									}
								}
								JOINT RightArmEnd
								{
									OFFSET 0.000000 0.000000 0.000000
									CHANNELS 3 Zrotation Yrotation Xrotation
									End Site
									{
										OFFSET 0.000000 0.000000 0.000000
									}
								}
							}
						}
					}
					JOINT LeftShoulder
					{
						OFFSET 2.625389 11.175210 -0.000000
						CHANNELS 3 Zrotation Yrotation Xrotation
						JOINT LeftArm
						{
							OFFSET -0.000000 10.813635 -0.000000
							CHANNELS 3 Zrotation Yrotation Xrotation
							JOINT LeftForeArm
							{
								OFFSET -0.000000 28.724781 0.000000
								CHANNELS 3 Zrotation Yrotation Xrotation
								JOINT LeftHand
								{
									OFFSET 0.644384 25.716167 -0.328871
									CHANNELS 3 Zrotation Yrotation Xrotation
									JOINT LeftHandThumb1
									{
										OFFSET 2.867323 3.959563 2.944291
										CHANNELS 3 Zrotation Yrotation Xrotation
										JOINT LeftHandThumb2
										{
											OFFSET 0.000000 3.350399 -0.000000
											CHANNELS 3 Zrotation Yrotation Xrotation
											JOINT LeftHandThumb3
											{
												OFFSET -0.000000 3.756509 -0.000000
												CHANNELS 3 Zrotation Yrotation Xrotation
												JOINT LeftHandThumb4
												{
													OFFSET 0.000000 3.100000 -0.000000
													CHANNELS 3 Zrotation Yrotation Xrotation
													End Site
													{
														OFFSET 0.000000 0.000000 0.000000
													}
												}
											}
										}
									}
									JOINT LeftHandIndex1
									{
										OFFSET 0.086752 10.030893 2.345280
										CHANNELS 3 Zrotation Yrotation Xrotation
										JOINT LeftHandIndex2
										{
											OFFSET -0.000000 4.061090 0.000000
											CHANNELS 3 Zrotation Yrotation Xrotation
											JOINT LeftHandIndex3
											{
												OFFSET 0.000000 3.248873 0.000000
												CHANNELS 3 Zrotation Yrotation Xrotation
												JOINT LeftHandIndex4
												{
													OFFSET -0.000000 2.639709 -0.000000
													CHANNELS 3 Zrotation Yrotation Xrotation
													End Site
													{
														OFFSET 0.000000 0.000000 0.000000
													}
												}
											}
										}
									}
									JOINT LeftHandMiddle1
									{
										OFFSET -0.104102 9.502952 0.006768
										CHANNELS 3 Zrotation Yrotation Xrotation
										JOINT LeftHandMiddle2
										{
											OFFSET -0.000000 4.568727 -0.000000
											CHANNELS 3 Zrotation Yrotation Xrotation
											JOINT LeftHandMiddle3
											{
												OFFSET -0.000000 3.654981 -0.000000
												CHANNELS 3 Zrotation Yrotation Xrotation
												JOINT LeftHandMiddle4
												{
													OFFSET -0.000000 2.741236 -0.000000
													CHANNELS 3 Zrotation Yrotation Xrotation
													End Site
													{
														OFFSET 0.000000 0.000000 0.000000
													}
												}
											}
										}
									}
									JOINT LeftHandRing1
									{
										OFFSET -0.086752 8.921708 -2.267442
										CHANNELS 3 Zrotation Yrotation Xrotation
										JOINT LeftHandRing2
										{
											OFFSET 0.000000 4.061090 -0.000000
											CHANNELS 3 Zrotation Yrotation Xrotation
											JOINT LeftHandRing3
											{
												OFFSET -0.000000 3.654981 -0.000000
												CHANNELS 3 Zrotation Yrotation Xrotation
												JOINT LeftHandRing4
												{
													OFFSET 0.000000 2.741236 0.000000
													CHANNELS 3 Zrotation Yrotation Xrotation
													End Site
													{
														OFFSET 0.000000 0.000000 0.000000
													}
												}
											}
										}
									}
									JOINT LeftHandPinky1
									{
										OFFSET 0.173504 7.976997 -4.467199
										CHANNELS 3 Zrotation Yrotation Xrotation
										JOINT LeftHandPinky2
										{
											OFFSET -0.000000 3.350399 -0.000000
											CHANNELS 3 Zrotation Yrotation Xrotation
											JOINT LeftHandPinky3
											{
												OFFSET -0.000000 2.842763 -0.000000
												CHANNELS 3 Zrotation Yrotation Xrotation
												JOINT LeftHandPinky4
												{
													OFFSET -0.000000 2.639709 0.000000
													CHANNELS 3 Zrotation Yrotation Xrotation
													End Site
													{
														OFFSET 0.000000 0.000000 0.000000
													}
												}
											}
										}
									}
									JOINT LeftForeArmEnd
									{
										OFFSET 0.000000 0.000000 0.000000
										CHANNELS 3 Zrotation Yrotation Xrotation
										End Site
										{
											OFFSET 0.000000 0.000000 0.000000
										}
									}
								}
								JOINT LeftArmEnd
								{
									OFFSET 0.000000 0.000000 0.000000
									CHANNELS 3 Zrotation Yrotation Xrotation
									End Site
									{
										OFFSET 0.000000 0.000000 0.000000
									}
								}
							}
						}
					}
				}
			}
		}
	}
	JOINT RightUpLeg
	{
		OFFSET -11.289943 0.000000 -0.000000
		CHANNELS 3 Zrotation Yrotation Xrotation
		JOINT RightLeg
		{
			OFFSET -0.000000 -38.200325 -0.000000
			CHANNELS 3 Zrotation Yrotation Xrotation
			JOINT RightFoot
			{
				OFFSET -0.000000 -39.900856 0.000000
				CHANNELS 3 Zrotation Yrotation Xrotation
				JOINT RightToeBase
				{
					OFFSET -0.000000 -0.000000 15.261641
					CHANNELS 3 Zrotation Yrotation Xrotation
					JOINT RightToeBaseEnd
					{
						OFFSET -0.000000 0.000000 7.370709
						CHANNELS 3 Zrotation Yrotation Xrotation
						End Site
						{
							OFFSET 0.000000 0.000000 0.000000
						}
					}
				}
				JOINT RightLegEnd
				{
					OFFSET 0.000000 0.000000 0.000000
					CHANNELS 3 Zrotation Yrotation Xrotation
					End Site
					{
						OFFSET 0.000000 0.000000 0.000000
					}
				}
			}
			JOINT RightUpLegEnd
			{
				OFFSET 0.000000 0.000000 0.000000
				CHANNELS 3 Zrotation Yrotation Xrotation
				End Site
				{
					OFFSET 0.000000 0.000000 0.000000
				}
			}
		}
	}
	JOINT LeftUpLeg
	{
		OFFSET 11.315661 -0.000000 -0.000000
		CHANNELS 3 Zrotation Yrotation Xrotation
		JOINT LeftLeg
		{
			OFFSET -0.000000 -38.200325 0.000000
			CHANNELS 3 Zrotation Yrotation Xrotation
			JOINT LeftFoot
			{
				OFFSET 0.000000 -39.900856 0.000000
				CHANNELS 3 Zrotation Yrotation Xrotation
				JOINT LeftToeBase
				{
					OFFSET -0.000000 -0.000000 15.261641
					CHANNELS 3 Zrotation Yrotation Xrotation
					JOINT LeftToeBaseEnd
					{
						OFFSET -0.000000 0.000000 7.539996
						CHANNELS 3 Zrotation Yrotation Xrotation
						End Site
						{
							OFFSET 0.000000 0.000000 0.000000
						}
					}
				}
				JOINT LeftLegEnd
				{
					OFFSET 0.000000 0.000000 0.000000
					CHANNELS 3 Zrotation Yrotation Xrotation
					End Site
					{
						OFFSET 0.000000 0.000000 0.000000
					}
				}
			}
			JOINT LeftUpLegEnd
			{
				OFFSET 0.000000 0.000000 0.000000
				CHANNELS 3 Zrotation Yrotation Xrotation
				End Site
				{
					OFFSET 0.000000 0.000000 0.000000
				}
			}
		}
	}
}
MOTION
Frames: 4
Frame Time: 0.016667
0.125245 88.705444 4.790124 -0.159985 -0.033370 -11.781847 0.711507 0.048634 8.078005 -0.198821 0.027677 1.825923 -0.415507 -0.711662 6.073603 -0.744023 -0.035091 3.117518 1.924683 -0.314981 5.148371 0.302797 0.728496 -3.191888 -0.040382 -0.783185 -19.035774 0.000000 0.000000 0.000000 92.843346 -0.556390 11.132437 64.644859 -38.874157 6.961634 -0.097803 10.562322 22.441694 6.944222 19.247320 -5.097725 11.536110 -1.910869 39.476406 0.000000 0.000000 -28.080000 0.000000 0.000000 -19.500000 0.000000 0.000000 0.000000 17.623116 0.000000 -9.081764 12.336179 0.000000 0.000000 12.336179 0.000000 0.000000 0.000000 0.000000 0.000000 16.240582 0.000000 -9.968869 11.368404 0.000000 0.000000 11.368404 0.000000 0.000000 0.000000 0.000000 0.000000 16.965736 0.000000 -9.385633 11.876018 0.000000 0.000000 11.876018 0.000000 0.000000 0.000000 0.000000 0.000000 16.804548 0.000000 -10.297279 11.763183 0.000000 0.000000 11.763183 0.000000 0.000000 0.000000 0.000000 0.000000 0.000000 0.000000 0.000000 0.000000 0.000000 0.000000 -90.619240 0.066036 5.768501 -66.621040 33.825867 -0.889513 -0.593176 -5.835401 41.090038 -1.449726 -22.811501 -14.298680 -11.236529 1.888869 39.607235 0.000000 0.000000 -27.360001 0.000000 0.000000 -18.999998 0.000000 0.000000 0.000000 -16.770184 0.000000 -11.469018 -11.739126 0.000000 0.000000 -11.739126 0.000000 0.000000 0.000000 0.000000 0.000000 -15.346850 -0.000000 -11.849414 -10.742795 0.000000 0.000000 -10.742795 0.000000 0.000000 0.000000 0.000000 0.000000 -15.680252 0.000000 -11.872455 -10.976175 0.000000 0.000000 -10.976175 0.000000 0.000000 0.000000 0.000000 0.000000 -14.855722 0.000000 -11.954432 -10.399003 0.000000 0.000000 -10.399003 0.000000 0.000000 0.000000 0.000000 0.000000 0.000000 0.000000 0.000000 0.000000 0.000000 0.000000 -4.637477 -13.316838 15.944229 -0.073349 -1.007125 4.322308 0.868986 -10.819425 19.420246 -1.217299 1.415806 -18.034376 0.000000 0.000000 0.000000 0.000000 0.000000 0.000000 0.000000 0.000000 0.000000 2.533068 -1.088246 10.836284 0.115268 0.653219 9.880169 0.943027 5.988273 17.342060 0.945250 -0.577579 -20.482491 0.000000 0.000000 0.000000 0.000000 0.000000 0.000000 0.000000 0.000000 0.000000 
0.180444 88.698326 4.740639 -0.258739 -0.181496 -12.270802 1.291207 -0.230488 8.051627 -0.626639 0.076795 2.554385 -0.431232 -1.135532 6.123827 -1.227199 -0.349796 3.533185 1.878508 -0.317894 5.124031 0.258518 0.610812 -3.025514 -0.205665 -0.838685 -18.598499 0.000000 0.000000 0.000000 92.600113 -0.494754 10.741521 64.859993 -38.622662 7.344749 -0.091994 12.244763 24.147621 6.586586 17.832100 -4.635369 11.553140 -1.918397 39.463890 -0.000006 0.000028 -28.185658 0.000009 0.000042 -19.552376 0.000004 -0.000004 -0.000027 17.059507 -0.063111 -9.323995 12.047948 -0.017521 -0.076767 12.110145 0.000516 -0.067691 -0.000029 0.000031 -0.000027 15.976201 -0.031899 -10.225953 11.210655 -0.008615 -0.022086 11.326688 0.001261 -0.017039 0.000021 0.000136 0.000010 16.935860 0.018751 -9.777113 11.680898 0.019775 0.016772 11.656443 0.001102 0.009508 -0.000009 -0.000013 0.000009 16.838144 0.098378 -10.928879 11.434258 0.036552 0.073961 11.337628 -0.000647 0.041416 -0.000120 -0.000003 0.000046 0.000000 0.000000 0.000000 0.000000 0.000000 0.000000 -89.579712 0.093966 7.264957 -67.458275 32.420124 -2.753058 -0.525771 -6.701540 41.784252 -1.089391 -20.141933 -14.004028 -11.233685 1.885376 39.609211 -0.000000 0.000022 -27.286182 0.000053 -0.000022 -18.965343 -0.000501 -0.000005 0.000072 -16.891870 -0.047508 -9.537408 -11.349244 -0.019154 0.054426 -11.507365 0.005777 0.052267 0.000009 0.000012 -0.000007 -15.713490 -0.013999 -10.521065 -10.799998 -0.015996 0.021030 -10.573080 -0.000182 0.016186 0.000535 -0.000040 0.000047 -16.017206 0.062707 -11.023288 -11.081580 0.029628 -0.039826 -11.011917 0.004171 -0.018101 0.000194 0.000007 0.000005 -15.141401 0.146449 -11.798306 -10.735892 0.053959 -0.010394 -10.789646 0.000416 -0.042310 0.000100 -0.000009 -0.000030 0.000000 0.000000 0.000000 0.000000 0.000000 0.000000 -5.227292 -13.270746 16.255322 -0.141747 -0.978133 5.592079 0.843342 -11.732248 18.308247 -1.152294 1.095894 -17.739515 0.000000 0.000000 0.000000 0.000000 0.000000 0.000000 0.000000 0.000000 0.000000 2.723743 -0.341307 11.234752 0.124469 0.689840 9.609358 0.497929 5.452707 17.848673 0.688605 -0.578023 -20.048470 0.000000 0.000000 0.000000 0.000000 0.000000 0.000000 0.000000 0.000000 0.000000 
0.199429 88.690849 4.733369 -0.276330 -0.161645 -12.349013 1.240509 -0.217328 8.135164 -0.606121 0.076991 2.613540 -0.424838 -1.151864 6.132998 -1.181973 -0.349801 3.484983 1.870272 -0.352983 5.106797 0.257963 0.572771 -3.007432 -0.224796 -0.851852 -18.639669 0.000000 0.000000 0.000000 92.613914 -0.484089 10.768824 64.672867 -38.559895 7.451174 -0.095561 12.200237 24.226910 6.652289 17.711784 -4.791206 11.521491 -1.918640 39.474941 -0.000007 0.000045 -28.095541 0.000017 0.000037 -19.497183 0.000015 0.000003 -0.000042 16.969501 -0.056271 -9.244570 11.932587 -0.018423 -0.073791 11.989154 -0.000619 -0.066554 -0.000008 0.000045 -0.000023 15.913947 -0.029070 -10.173907 11.087901 -0.009855 -0.021140 11.204045 0.000818 -0.016189 0.000018 0.000118 -0.000002 16.856728 0.014958 -9.751348 11.553477 0.020622 0.015000 11.539255 0.001020 0.008732 -0.000013 -0.000030 -0.000003 16.784948 0.086937 -10.920156 11.338427 0.038947 0.075684 11.245758 -0.000298 0.043814 -0.000112 0.000005 0.000044 0.000000 0.000000 0.000000 0.000000 0.000000 0.000000 -89.548325 0.082772 7.206170 -67.621773 32.256454 -2.842372 -0.472609 -6.640815 41.998058 -0.973867 -19.907305 -14.203817 -11.180076 1.878402 39.628052 0.000015 0.000026 -27.172422 0.000046 -0.000014 -18.891663 -0.000549 0.000005 0.000086 -16.743158 -0.038683 -9.397784 -11.301947 -0.018527 0.056707 -11.461763 0.007346 0.050388 0.000019 -0.000050 0.000001 -15.605359 -0.010154 -10.441365 -10.772617 -0.015904 0.021073 -10.542809 0.000169 0.016708 0.000570 -0.000037 0.000032 -15.956209 0.060266 -10.991345 -11.069696 0.029922 -0.041075 -10.995980 0.003749 -0.019906 0.000121 0.000010 0.000010 -15.104201 0.140327 -11.829144 -10.734583 0.051717 -0.015728 -10.778448 -0.002232 -0.048801 0.000096 0.000007 -0.000046 0.000000 0.000000 0.000000 0.000000 0.000000 0.000000 -5.253836 -13.292809 16.374743 -0.138435 -0.972528 5.536168 0.855466 -11.679360 18.292429 -1.145609 1.100949 -17.771410 0.000000 0.000000 0.000000 0.000000 0.000000 0.000000 0.000000 0.000000 0.000000 2.773030 -0.321199 11.294170 0.121771 0.683594 9.656120 0.496348 5.418751 17.805231 0.685862 -0.582020 -20.040989 0.000000 0.000000 0.000000 0.000000 0.000000 0.000000 0.000000 0.000000 0.000000 
0.217595 88.680199 4.721996 -0.263582 -0.154136 -12.392685 1.183245 -0.198895 8.195184 -0.591937 0.079995 2.647725 -0.428242 -1.127008 6.143771 -1.150624 -0.344801 3.458008 1.851188 -0.396575 5.072451 0.262309 0.519682 -3.007968 -0.223365 -0.864475 -18.680578 0.000000 0.000000 0.000000 92.609352 -0.473576 10.795711 64.602394 -38.412312 7.417015 -0.099289 12.274194 24.447975 6.592109 17.678907 -4.851215 11.489034 -1.918099 39.486286 -0.000005 0.000045 -28.014076 0.000014 0.000039 -19.440205 0.000015 0.000003 -0.000042 16.830166 -0.052098 -9.218060 11.830383 -0.020205 -0.068196 11.878609 -0.002254 -0.063069 -0.000006 0.000044 -0.000024 15.795283 -0.027384 -10.164253 10.986630 -0.011014 -0.018874 11.103405 0.000099 -0.014685 0.000017 0.000114 -0.000000 16.766129 0.013301 -9.752331 11.462632 0.021764 0.012893 11.455939 0.001557 0.007659 -0.000011 -0.000052 -0.000002 16.713135 0.080781 -10.932799 11.280488 0.042013 0.075216 11.191506 0.000193 0.043598 -0.000105 0.000005 0.000035 0.000000 0.000000 0.000000 0.000000 0.000000 0.000000 -89.470734 0.084308 7.160254 -67.759781 32.054451 -2.920358 -0.446149 -6.647448 42.191517 -0.890905 -19.694118 -14.230901 -11.125287 1.872511 39.648186 0.000014 0.000026 -27.061344 0.000043 -0.000015 -18.815069 -0.000635 0.000004 0.000166 -16.508785 -0.035190 -9.270124 -11.228943 -0.019254 0.053270 -11.390182 0.007182 0.042832 0.000017 -0.000138 0.000002 -15.411833 -0.008434 -10.355813 -10.712005 -0.016291 0.018635 -10.487369 0.000013 0.014874 0.000553 -0.000038 0.000023 -15.819516 0.060025 -10.962769 -11.030196 0.030541 -0.038894 -10.951425 0.003873 -0.018460 0.000085 0.000010 0.000009 -15.029596 0.138302 -11.862402 -10.716266 0.051842 -0.010331 -10.759045 -0.002859 -0.043518 0.000084 0.000007 -0.000047 0.000000 0.000000 0.000000 0.000000 0.000000 0.000000 -5.292423 -13.288278 16.465820 -0.136318 -0.968441 5.496348 0.875055 -11.637648 18.258615 -1.139971 1.103883 -17.809645 0.000000 0.000000 0.000000 0.000000 0.000000 0.000000 0.000000 0.000000 0.000000 2.778223 -0.346025 11.319038 0.120157 0.680564 9.700751 0.489208 5.391795 17.785217 0.682788 -0.584971 -20.050676 0.000000 0.000000 0.000000 0.000000 0.000000 0.000000 0.000000 0.000000 0.000000 
